<?xml version="1.0" encoding="UTF-8" standalone="no"?>
<!DOCTYPE svg PUBLIC "-//W3C//DTD SVG 1.1//EN"
 "http://www.w3.org/Graphics/SVG/1.1/DTD/svg11.dtd">
<!-- Generated by graphviz version 2.43.0 (0)
 -->
<!-- Title: include/kdfs/r1323665_1_022&#45;2018/kdf.h Pages: 1 -->
<svg width="232pt" height="106pt"
 viewBox="0.00 0.00 232.00 106.00" xmlns="http://www.w3.org/2000/svg" xmlns:xlink="http://www.w3.org/1999/xlink">
<g id="graph0" class="graph" transform="scale(1 1) rotate(0) translate(4 102)">
<title>include/kdfs/r1323665_1_022&#45;2018/kdf.h</title>
<!-- Node1 -->
<g id="node1" class="node">
<title>Node1</title>
<g id="a_node1"><a xlink:title="R1323665.1.022&#45;2018 KDF header.">
<polygon fill="#bfbfbf" stroke="black" points="43,-67.5 43,-97.5 168,-97.5 168,-67.5 43,-67.5"/>
<text text-anchor="start" x="51" y="-85.5" font-family="Helvetica,sans-Serif" font-size="10.00">include/kdfs/r1323665</text>
<text text-anchor="middle" x="105.5" y="-74.5" font-family="Helvetica,sans-Serif" font-size="10.00">_1_022&#45;2018/kdf.h</text>
</a>
</g>
</g>
<!-- Node2 -->
<g id="node2" class="node">
<title>Node2</title>
<g id="a_node2"><a xlink:href="kdflib_8h.html" target="_top" xlink:title="Library header with supported KDFs.">
<polygon fill="none" stroke="black" points="0,-6 0,-25 91,-25 91,-6 0,-6"/>
<text text-anchor="middle" x="45.5" y="-13" font-family="Helvetica,sans-Serif" font-size="10.00">include/kdflib.h</text>
</a>
</g>
</g>
<!-- Node1&#45;&gt;Node2 -->
<g id="edge1" class="edge">
<title>Node1&#45;&gt;Node2</title>
<path fill="none" stroke="midnightblue" d="M85.65,-60C74.7,-48.13 61.7,-34.05 53.53,-25.19"/>
<polygon fill="midnightblue" stroke="midnightblue" points="83.13,-62.42 92.48,-67.4 88.27,-57.67 83.13,-62.42"/>
</g>
<!-- Node3 -->
<g id="node3" class="node">
<title>Node3</title>
<g id="a_node3"><a xlink:href="kdf_8c.html" target="_top" xlink:title="R1323665.1.022&#45;2018 KDF implementation.">
<polygon fill="none" stroke="black" points="109,-0.5 109,-30.5 224,-30.5 224,-0.5 109,-0.5"/>
<text text-anchor="start" x="117" y="-18.5" font-family="Helvetica,sans-Serif" font-size="10.00">src/kdfs/r1323665_1</text>
<text text-anchor="middle" x="166.5" y="-7.5" font-family="Helvetica,sans-Serif" font-size="10.00">_022&#45;2018/kdf.c</text>
</a>
</g>
</g>
<!-- Node1&#45;&gt;Node3 -->
<g id="edge2" class="edge">
<title>Node1&#45;&gt;Node3</title>
<path fill="none" stroke="midnightblue" d="M125.65,-60.02C134.74,-50.34 145.22,-39.17 153.29,-30.58"/>
<polygon fill="midnightblue" stroke="midnightblue" points="123.03,-57.71 118.74,-67.4 128.13,-62.5 123.03,-57.71"/>
</g>
</g>
</svg>
